IKResults
version=1
nRows=36
nColumns=16
inDegrees=yes

Units are S.I. units (second, meters, Newtons, ...)
If the header above contains a line with 'inDegrees', this indicates whether rotational values are in degrees (yes) or radians (no).

endheader
time	pelvis_tilt	pelvis_list	pelvis_rotation	pelvis_tx	pelvis_ty	pelvis_tz	hip_flexion_r	hip_adduction_r	hip_rotation_r	knee_angle_r	knee_adduction_r	knee_angle_r_beta	ankle_angle_r	subtalar_angle_r	mtp_angle_r
      0.40000000	    -20.09684737	      8.15171938	    -30.60051261	     -0.10296935	      0.93556172	      0.02705809	      8.55920937	    -11.08193539	    -19.53908130	     23.38956690	      5.96791786	      0.40822495	     -1.85234970	     18.73561173	    -28.56955934
      0.40500000	    -19.77713859	      7.82130188	    -30.47371580	     -0.09272628	      0.93679586	      0.02942563	      7.61494512	    -11.69973403	    -20.00231815	     25.19918278	      5.96791786	      0.43980871	     -3.48704806	     15.49348669	    -28.36679579
      0.41000000	    -18.71266566	      7.48521259	    -30.48722993	     -0.08268049	      0.93886873	      0.03148756	      5.99792537	    -12.81957612	    -20.34632272	     27.14901447	      5.96791786	      0.47383969	     -4.49160745	     13.27753754	    -28.29386322
      0.41500000	    -17.90080891	      6.93799574	    -30.69185305	     -0.07103654	      0.93963402	      0.03430187	      4.34726118	    -13.61939953	    -20.42100011	     28.97494410	      5.96791786	      0.50570818	     -5.66999949	     11.37878247	    -27.99899276
      0.42000000	    -17.43025047	      6.32263538	    -30.47140542	     -0.06107245	      0.94046046	      0.03641968	      2.96089394	    -13.99782249	    -20.28552854	     30.78850225	      5.96791786	      0.53736074	     -6.95153505	      9.05091942	    -27.86929503
      0.42500000	    -16.68605085	      5.89893784	    -30.40599906	     -0.05045093	      0.94100872	      0.03883350	      1.55208393	    -14.93320335	    -20.33792987	     32.97421797	      5.96791786	      0.57550867	     -7.91898816	      7.98831895	    -27.63092149
      0.43000000	    -15.99433513	      5.30240995	    -30.52063581	     -0.04054449	      0.94149452	      0.04135062	      0.13162757	    -15.54621073	    -19.91841325	     35.07684051	      5.96791786	      0.61220636	     -8.73024611	      6.83449603	    -27.51960564
      0.43500000	    -15.62203110	      4.82074128	    -30.59350291	     -0.03006288	      0.94147013	      0.04382931	     -0.94876825	    -16.06645427	    -19.26878445	     37.11369683	      5.96791786	      0.64775621	     -9.91121396	      6.22563943	    -27.41281175
      0.44000000	    -15.39140915	      4.54787940	    -30.64777712	     -0.02056161	      0.94126376	      0.04624595	     -1.59579797	    -16.62671686	    -18.32746202	     39.36883545	      5.96791786	      0.68711580	    -10.69973567	      5.14461266	    -27.56095158
      0.44500000	    -15.26832152	      3.90219077	    -30.47161680	     -0.01095386	      0.94056126	      0.04827435	     -2.40291949	    -16.74636236	    -17.58299152	     41.69653033	      5.96791786	      0.72774174	    -11.09107251	      4.20600227	    -27.77905106
      0.45000000	    -15.04763842	      3.43726100	    -30.62964627	     -0.00132584	      0.94010188	      0.05109560	     -3.11003214	    -16.93899724	    -16.18696233	     43.75133713	      5.96791786	      0.76360489	    -13.09926772	      4.18293871	    -27.43107210
      0.45500000	    -14.80405235	      2.94009682	    -30.75813228	      0.00856786	      0.93934784	      0.05363564	     -3.84844532	    -17.18013470	    -14.87871662	     45.83667183	      5.96791786	      0.80000084	    -14.41326718	      4.05862948	    -27.31958394
      0.46000000	    -14.73839732	      2.34418835	    -30.38848378	      0.01781301	      0.93834272	      0.05584745	     -4.64381463	    -17.02472115	    -13.90013370	     47.79242620	      5.96791786	      0.83413519	    -15.64893635	      3.31092692	    -27.36718230
      0.46500000	    -15.26903405	      1.32176000	    -29.92264963	      0.02635903	      0.93627211	      0.05806112	     -5.00384996	    -15.87132875	    -12.55872897	     49.76010133	      5.96791786	      0.86847760	    -17.26494945	      2.16904606	    -27.28893904
      0.47000000	    -14.87059877	      0.69930713	    -29.78432133	      0.03666954	      0.93500005	      0.06089738	     -6.20114555	    -15.87328197	    -11.51988712	     51.36769195	      5.96791786	      0.89653535	    -19.11681554	      1.56627062	    -27.41459236
      0.47500000	    -14.57862579	     -0.03176290	    -29.67236097	      0.04647285	      0.93319840	      0.06359839	     -7.19738414	    -15.57652320	    -10.14693824	     53.08960110	      5.96791786	      0.92658834	    -20.92245001	      0.35894485	    -27.40104131
      0.48000000	    -14.21161411	     -0.71420215	    -29.40931469	      0.05661140	      0.93104724	      0.06599387	     -8.36545947	    -15.43265573	     -9.09099790	     54.77314656	      5.96791786	      0.95597175	    -22.15673250	     -0.67580793	    -26.91886520
      0.48500000	    -13.81574826	     -1.29879064	    -29.25456395	      0.06667366	      0.92893541	      0.06884332	     -9.43455047	    -15.18055871	     -7.68825612	     56.34061810	      5.96791786	      0.98332929	    -24.25333664	     -1.69977835	    -26.26281997
      0.49000000	    -13.26906379	     -1.92981235	    -28.70994698	      0.07655269	      0.92643237	      0.07110390	    -10.75203843	    -14.84336210	     -6.58586242	     57.94923452	      5.96791786	      1.01140494	    -25.80030513	     -4.09799570	    -25.30624883
      0.49500000	    -12.54844005	     -2.55277450	    -28.33004048	      0.08666247	      0.92352583	      0.07330570	    -12.14973379	    -14.61075771	     -5.28459906	     59.64788890	      5.96791786	      1.04105205	    -27.32370104	     -6.11162074	    -24.33676538
      0.50000000	    -11.78217659	     -2.92618629	    -28.08049784	      0.09766907	      0.92089912	      0.07654778	    -13.52589245	    -14.45577744	     -3.79740344	     61.11744578	      5.96791786	      1.06670066	    -29.35305712	     -7.97428499	    -23.23044630
      0.50500000	    -10.70632490	     -3.05555884	    -27.79216444	      0.10809072	      0.91758145	      0.07841848	    -14.76276325	    -15.10210556	     -2.60605469	     63.31851524	      5.96791786	      1.10511657	    -29.54134085	    -10.96735677	    -18.85088041
      0.51000000	    -10.35525680	     -3.30709574	    -27.49742543	      0.11789455	      0.91335195	      0.08089445	    -15.25303159	    -14.82468210	     -0.93513095	     65.45948733	      5.96791786	      1.14248358	    -30.85913331	    -12.64805699	    -16.94574710
      0.51500000	     -9.97359893	     -3.81381096	    -26.80784349	      0.12753581	      0.90940751	      0.08312078	    -15.89189693	    -14.05725378	      0.36569243	     67.56677698	      5.96791786	      1.17926272	    -31.91492061	    -15.03132188	    -13.52857778
      0.52000000	     -9.29442722	     -3.75396185	    -26.28633350	      0.13706784	      0.90572305	      0.08547517	    -16.39065884	    -14.09336440	      1.68653703	     69.91144120	      5.96791786	      1.22018483	    -32.88596004	    -17.97795184	    -12.21203358
      0.52500000	     -8.63314265	     -4.04271547	    -26.14694020	      0.14720260	      0.90162504	      0.08803980	    -16.91215636	    -14.09818798	      2.97852001	     71.93068311	      5.96791786	      1.25542725	    -35.16734028	    -20.70427063	    -13.76558531
      0.53000000	     -7.99185068	     -4.35927259	    -25.86450750	      0.15744609	      0.89768446	      0.09056411	    -17.36119274	    -13.80778851	      4.16835629	     73.90230174	      5.96791786	      1.28983849	    -36.81007016	    -24.94591950	    -13.58697910
      0.53500000	     -8.02042178	     -4.20690278	    -25.68625860	      0.16581417	      0.89280615	      0.09188972	    -15.73750784	    -14.14562480	      5.93468584	     78.02292025	      5.96791786	      1.36175685	    -31.50276237	    -23.32061960	     -4.03998025
      0.54000000	     -8.03191469	     -4.57122229	    -25.18444960	      0.17402172	      0.88873220	      0.09426408	    -14.92264441	    -13.34366418	      6.94659024	     80.75779516	      5.96791786	      1.40948942	    -33.29622106	    -25.78873036	     -7.11469110
      0.54500000	     -7.80548000	     -5.33375756	    -24.55654309	      0.18169898	      0.88572905	      0.09577027	    -14.27801653	    -12.26321904	      7.67205023	     83.20095987	      5.96791786	      1.45213069	    -35.05828042	    -30.26732336	     -6.66109525
      0.55000000	     -7.81021447	     -5.05314666	    -24.52306039	      0.18815011	      0.88185538	      0.09621544	    -11.38027145	    -13.04404276	      9.61329009	     88.29243290	      5.96791786	      1.54099366	    -24.68683387	    -25.53905832	     13.31229719
      0.55500000	     -7.55388878	     -5.77991499	    -24.01739746	      0.19468058	      0.87969809	      0.09673846	     -9.99408955	    -12.30487982	     10.18740794	     90.67856578	      5.96791786	      1.58263953	    -27.24467230	    -26.82005941	     11.27783090
      0.56000000	     -7.26311095	     -5.57353383	    -24.05640586	      0.20100862	      0.87804830	      0.09691309	     -7.61554419	    -13.00709674	     11.30693400	     93.56413970	      5.96791786	      1.63300230	    -27.71505547	    -26.97998507	     11.52978895
      0.56500000	     -6.45376693	     -6.52282395	    -23.63219863	      0.20709758	      0.87790979	      0.09751010	     -6.14737122	    -12.37810676	     12.41688689	     96.36129373	      5.96791786	      1.68182185	    -23.91208959	    -27.39958806	     21.96725196
      0.57000000	     -5.68967888	     -6.46862216	    -23.51679657	      0.21314056	      0.87711882	      0.09652013	     -3.95404280	    -13.29093762	     13.37450065	     98.60871738	      5.96791786	      1.72104679	    -24.11483533	    -29.86679608	     21.96245599
      0.57500000	     -4.73565678	     -6.98495462	    -23.21411535	      0.21923907	      0.87837838	      0.09631659	     -2.32681912	    -13.22528923	     13.68065360	     99.60853804	      5.96791786	      1.73849695	    -27.71123824	    -29.28515181	     14.79614744
